<svg width="32" height="32" viewBox="0 0 32 32" fill="none" xmlns="http://www.w3.org/2000/svg">
<path d="M23.608 6.25638C20.8023 5.42474 19.9212 7.00048 15.9971 7.00048C12.0729 7.00048 11.1918 5.41849 8.38617 6.25638C5.58051 7.08802 4.1808 10.0331 2.85608 15.5607C1.53136 21.0945 1.77506 25.0901 3.33723 25.8342C4.8994 26.5783 6.66153 24.8713 8.34243 22.764C9.70464 21.1133 10.3857 21.007 15.9971 21.007C21.6021 21.007 22.1833 21.0508 23.6517 22.764C25.3326 24.8713 27.0947 26.5783 28.6569 25.8342C30.2191 25.0901 30.4628 21.0945 29.1381 15.5607C27.8133 10.0331 26.4074 7.09427 23.608 6.25638ZM8.01125 16.4861C6.65528 16.4861 5.55551 15.3794 5.55551 14.01C5.55551 12.6468 6.65528 11.5338 8.01125 11.5338C9.36721 11.5338 10.467 12.6468 10.467 14.01C10.467 15.3731 9.36721 16.4861 8.01125 16.4861ZM19.3526 15.2293C18.6903 15.2293 18.1466 14.6853 18.1466 14.0162C18.1466 13.3472 18.6903 12.8032 19.3526 12.8032C20.0212 12.8032 20.5649 13.3472 20.5649 14.0162C20.5586 14.6853 20.0212 15.2293 19.3526 15.2293ZM21.9896 17.8805C21.3272 17.8805 20.7836 17.3365 20.7836 16.6675C20.7836 15.9922 21.3272 15.4544 21.9896 15.4544C22.6582 15.4544 23.2018 15.9984 23.2018 16.6675C23.2018 17.3428 22.6582 17.8805 21.9896 17.8805ZM21.9896 12.5718C21.3272 12.5718 20.7836 12.0278 20.7836 11.3588C20.7836 10.6897 21.3272 10.1457 21.9896 10.1457C22.6582 10.1457 23.2018 10.6897 23.2018 11.3588C23.2018 12.0278 22.6582 12.5718 21.9896 12.5718ZM24.6328 15.2293C23.9641 15.2293 23.4268 14.6853 23.4268 14.0162C23.4268 13.3472 23.9704 12.8032 24.6328 12.8032C25.2951 12.8032 25.8388 13.3472 25.8388 14.0162C25.8388 14.6853 25.3014 15.2293 24.6328 15.2293Z" fill="#0DCAF0"/>
</svg>
